<?xml version="1.0" encoding="UTF-8" standalone="no"?>
<svg
   xmlns:dc="http://purl.org/dc/elements/1.1/"
   xmlns:cc="http://creativecommons.org/ns#"
   xmlns:rdf="http://www.w3.org/1999/02/22-rdf-syntax-ns#"
   xmlns:svg="http://www.w3.org/2000/svg"
   xmlns="http://www.w3.org/2000/svg"
   xmlns:sodipodi="http://sodipodi.sourceforge.net/DTD/sodipodi-0.dtd"
   xmlns:inkscape="http://www.inkscape.org/namespaces/inkscape"
   viewBox="0 0 300 300"
   id="svg4136"
   version="1.1"
   inkscape:version="0.91 r13725"
   sodipodi:docname="s2.svg">
  <metadata
     id="metadata4162">
    <rdf:RDF>
      <cc:Work
         rdf:about="">
        <dc:format>image/svg+xml</dc:format>
        <dc:type
           rdf:resource="http://purl.org/dc/dcmitype/StillImage" />
        <dc:title></dc:title>
      </cc:Work>
    </rdf:RDF>
  </metadata>
  <defs
     id="defs4160" />
  <sodipodi:namedview
     pagecolor="#ffffff"
     bordercolor="#666666"
     borderopacity="1"
     objecttolerance="10"
     gridtolerance="10"
     guidetolerance="10"
     inkscape:pageopacity="0"
     inkscape:pageshadow="2"
     inkscape:window-width="1920"
     inkscape:window-height="1017"
     id="namedview4158"
     showgrid="false"
     inkscape:zoom="2.5853659"
     inkscape:cx="160.51324"
     inkscape:cy="129.73915"
     inkscape:window-x="-8"
     inkscape:window-y="57"
     inkscape:window-maximized="1"
     inkscape:current-layer="svg4136" />
  <g
     transform="translate(150,150)"
     id="g4138">
    <circle
       cx="0"
       cy="0"
       r="50"
       fill-opacity="0"
       stroke="#EEEEEE"
       stroke-width="2"
       id="circle4140" />
    <circle
       cx="0"
       cy="0"
       r="40"
       fill-opacity="0"
       stroke="#EEEEEE"
       stroke-width="2"
       id="circle4142" />
    <circle
       cx="0"
       cy="0"
       r="140"
       fill-opacity="0"
       stroke="#EEEEEE"
       stroke-width="2"
       id="circle4144" />
    <path
       d="M -0.9555339812679852 -49.990868714302636 -0.9555339812679852 -49.990868714302636 A 50 50 0 1 0 3.061616997868383e-15 -50"
       fill-opacity="0"
       stroke="#42A5F5"
       stroke-width="2"
       id="path4146" />
    <path
       d="M 23.971276930210152 -43.879128094518634 23.971276930210152 -43.879128094518634 A 50 50 0 0 0 3.061616997868383e-15 -50"
       fill-opacity="0"
       stroke="#FF8A65"
       stroke-width="3"
       id="path4148" />
    <path
       d="M 67.11957540458843 -122.86155866465216 67.11957540458843 -122.86155866465216 A 140 140 0 0 0 8.572527594031473e-15 -140"
       fill-opacity="0"
       stroke="#9932CC"
       stroke-width="2"
       id="path4150" />
    <path
       d="M 39.35943787495748 7.129842225979686 39.35943787495748 7.129842225979686 A 40 40 0 0 0 2.4492935982947065e-15 -40"
       fill-opacity="0"
       stroke="#9932CC"
       stroke-width="2"
       class=""
       style="opacity: 0;"
       id="path4152" />
  </g>
  <g
     transform="translate(150,115) rotate(0, 0, 35)"
     id="g4154">
    <path
       fill="#FFFFFF"
       stroke="#777777"
       stroke-width="1"
       d="M 5,3 0,-3 -5,3"
       id="path4156" />
  </g>
  <path
     sodipodi:type="spiral"
     style="fill:none;fill-rule:evenodd;stroke:#000000;stroke-width:1px;stroke-linecap:butt;stroke-linejoin:miter;stroke-opacity:1"
     id="path4164"
     sodipodi:cx="148.25635"
     sodipodi:cy="152.25656"
     sodipodi:expansion="1"
     sodipodi:revolution="10.124204"
     sodipodi:radius="81.181015"
     sodipodi:argument="-80.203423"
     sodipodi:t0="0.64401096"
     d="m 150.00591,100.00438 c 29.11431,0.26394 52.79465,25.11909 52.50612,54.06882 -0.30105,30.2057 -26.09828,54.7671 -56.13941,54.44255 -31.29707,-0.33811 -56.739568,-27.07748 -56.378967,-58.21 0.375148,-32.38845 28.056677,-58.712074 60.280587,-58.315388 33.47983,0.412147 60.68461,29.035868 60.25181,62.351178 -0.44912,34.5712 -30.01506,62.65717 -64.42176,62.18823 -35.66259,-0.48606 -64.629764,-30.99426 -64.124655,-66.49235 0.522979,-36.75396 31.973455,-66.602372 68.562935,-66.061075 37.84534,0.559875 68.575,32.952655 67.9975,70.633525 -0.59675,38.93671 -33.93186,70.54765 -72.70411,69.93392 -40.02809,-0.63361 -72.520318,-34.91106 -71.870342,-74.7747 0.670451,-41.11947 35.890252,-74.492998 76.845292,-73.806763 42.21084,0.707277 76.46569,36.869453 75.74318,78.915873 -0.74409,43.30222 -37.84866,78.4384 -80.98647,77.6796 -17.67084,-0.31083 -35.00554,-6.56786 -48.834644,-17.56609" />
</svg>
