<?xml version="1.0" encoding="UTF-8" standalone="no"?>
<svg
   xmlns:dc="http://purl.org/dc/elements/1.1/"
   xmlns:cc="http://creativecommons.org/ns#"
   xmlns:rdf="http://www.w3.org/1999/02/22-rdf-syntax-ns#"
   xmlns:svg="http://www.w3.org/2000/svg"
   xmlns="http://www.w3.org/2000/svg"
   xmlns:sodipodi="http://sodipodi.sourceforge.net/DTD/sodipodi-0.dtd"
   xmlns:inkscape="http://www.inkscape.org/namespaces/inkscape"
   viewBox="0 0 300 300"
   id="svg4136"
   version="1.1"
   inkscape:version="0.91 r13725"
   sodipodi:docname="s2.svg">
  <metadata
     id="metadata4162">
    <rdf:RDF>
      <cc:Work
         rdf:about="">
        <dc:format>image/svg+xml</dc:format>
        <dc:type
           rdf:resource="http://purl.org/dc/dcmitype/StillImage" />
        <dc:title></dc:title>
      </cc:Work>
    </rdf:RDF>
  </metadata>
  <defs
     id="defs4160" />
  <sodipodi:namedview
     pagecolor="#ffffff"
     bordercolor="#666666"
     borderopacity="1"
     objecttolerance="10"
     gridtolerance="10"
     guidetolerance="10"
     inkscape:pageopacity="0"
     inkscape:pageshadow="2"
     inkscape:window-width="1920"
     inkscape:window-height="1017"
     id="namedview4158"
     showgrid="false"
     inkscape:zoom="2.8284271"
     inkscape:cx="157.74233"
     inkscape:cy="153.93472"
     inkscape:window-x="-8"
     inkscape:window-y="57"
     inkscape:window-maximized="1"
     inkscape:current-layer="svg4136" />
  <g
     transform="translate(150,150)"
     id="g4138">
    <circle
       cx="0"
       cy="0"
       r="50"
       fill-opacity="0"
       stroke="#EEEEEE"
       stroke-width="2"
       id="circle4140" />
    <circle
       cx="0"
       cy="0"
       r="40"
       fill-opacity="0"
       stroke="#EEEEEE"
       stroke-width="2"
       id="circle4142" />
    <circle
       cx="0"
       cy="0"
       r="140"
       fill-opacity="0"
       stroke="#EEEEEE"
       stroke-width="2"
       id="circle4144" />
    <path
       d="M -0.9555339812679852 -49.990868714302636 -0.9555339812679852 -49.990868714302636 A 50 50 0 1 0 3.061616997868383e-15 -50"
       fill-opacity="0"
       stroke="#42A5F5"
       stroke-width="2"
       id="path4146" />
    <path
       d="M 23.971276930210152 -43.879128094518634 23.971276930210152 -43.879128094518634 A 50 50 0 0 0 3.061616997868383e-15 -50"
       fill-opacity="0"
       stroke="#FF8A65"
       stroke-width="3"
       id="path4148" />
    <path
       d="M 67.11957540458843 -122.86155866465216 67.11957540458843 -122.86155866465216 A 140 140 0 0 0 8.572527594031473e-15 -140"
       fill-opacity="0"
       stroke="#9932CC"
       stroke-width="2"
       id="path4150" />
    <path
       d="M 39.35943787495748 7.129842225979686 39.35943787495748 7.129842225979686 A 40 40 0 0 0 2.4492935982947065e-15 -40"
       fill-opacity="0"
       stroke="#9932CC"
       stroke-width="2"
       class=""
       style="opacity: 0;"
       id="path4152" />
  </g>
  <g
     transform="translate(150,115) rotate(0, 0, 35)"
     id="g4154">
    <path
       fill="#FFFFFF"
       stroke="#777777"
       stroke-width="1"
       d="M 5,3 0,-3 -5,3"
       id="path4156" />
  </g>
  <path
     sodipodi:type="spiral"
     style="fill:none;fill-rule:evenodd;stroke:#000000;stroke-width:1px;stroke-linecap:butt;stroke-linejoin:miter;stroke-opacity:1"
     id="path4164"
     sodipodi:cx="148.25635"
     sodipodi:cy="151.74364"
     sodipodi:expansion="1"
     sodipodi:revolution="13.133192"
     sodipodi:radius="91.651558"
     sodipodi:argument="-80.203423"
     sodipodi:t0="0.57266414"
     d="m 150.27969,99.297091 c 29.13883,0.507109 52.69092,25.541579 52.16656,54.537139 -0.54412,30.08851 -26.40251,54.40331 -56.34776,53.84267 -31.03816,-0.5811 -56.115714,-27.26345 -55.518763,-58.15837 0.618069,-31.98784 28.124383,-57.828152 59.968993,-57.194871 32.93749,0.655014 59.54059,28.985321 58.87096,61.779601 -0.69194,33.88716 -29.84626,61.25306 -63.59022,60.54707 -34.83682,-0.72885 -62.965532,-30.7072 -62.223165,-65.40083 0.765751,-35.78649 31.568135,-64.678032 67.211445,-63.899274 36.73616,0.802635 66.39054,32.429074 65.57538,69.022064 -0.83951,37.68582 -33.29002,68.10305 -70.83268,67.25147 -38.63548,-0.87636 -69.81558,-34.15095 -68.927578,-72.64329 0.913213,-39.58515 35.011898,-71.528115 74.453908,-70.603677 40.53481,0.950052 73.24066,35.872837 72.27978,76.264527 -0.98688,41.48447 -36.73378,74.95322 -78.07514,73.95588 -42.43414,-1.0237 -76.665781,-37.59473 -75.63198,-79.88576 1.060512,-43.3838 38.45566,-78.378349 81.69637,-77.308079 44.33346,1.097317 80.09093,39.316609 78.98418,83.506989 -1.13411,45.28312 -40.17755,81.80351 -85.3176,80.66028 -46.23279,-1.17091 -83.516104,-41.0385 -82.336383,-87.12822 1.20769,-47.18245 41.899443,-85.228698 88.938833,-84.012482 48.13212,1.244469 86.9413,42.760382 85.68858,90.749452 -1.28124,49.08178 -43.62132,88.65391 -92.56006,87.36468 -21.55039,-0.56771 -42.53818,-8.96601 -58.570854,-23.37013" />
</svg>
