<svg xmlns="http://www.w3.org/2000/svg" viewBox="0 0 300 300"><g transform="translate(150,150)"><circle cx="0" cy="0" r="50" fill-opacity="0" stroke="#EEEEEE" stroke-width="2"></circle><circle cx="0" cy="0" r="40" fill-opacity="0" stroke="#EEEEEE" stroke-width="2"></circle><circle cx="0" cy="0" r="140" fill-opacity="0" stroke="#EEEEEE" stroke-width="2"></circle><path d="M -0.9555339812679852 -49.990868714302636 -0.9555339812679852 -49.990868714302636 A 50 50 0 1 0 3.061616997868383e-15 -50" fill-opacity="0" stroke="#42A5F5" stroke-width="2"></path><path d="M 23.971276930210152 -43.879128094518634 23.971276930210152 -43.879128094518634 A 50 50 0 0 0 3.061616997868383e-15 -50" fill-opacity="0" stroke="#FF8A65" stroke-width="3"></path><path d="M 67.11957540458843 -122.86155866465216 67.11957540458843 -122.86155866465216 A 140 140 0 0 0 8.572527594031473e-15 -140" fill-opacity="0" stroke="#9932CC" stroke-width="2"></path><path d="M 39.35943787495748 7.129842225979686 39.35943787495748 7.129842225979686 A 40 40 0 0 0 2.4492935982947065e-15 -40" fill-opacity="0" stroke="#9932CC" stroke-width="2" class="" style="opacity: 0;"></path></g><g transform="translate(150,115) rotate(0, 0, 35)"><path fill="#FFFFFF" stroke="#777777" stroke-width="1" d="M 5,3 0,-3 -5,3"></path></g></svg>