<?xml version="1.0" encoding="UTF-8" standalone="no"?>
<svg id="svg4716" xmlns:rdf="http://www.w3.org/1999/02/22-rdf-syntax-ns#" xmlns="http://www.w3.org/2000/svg" height="300" viewBox="0 0 300.00001 300.00001" width="300" version="1.1" xmlns:cc="http://creativecommons.org/ns#" xmlns:dc="http://purl.org/dc/elements/1.1/">
 <g id="layer1">
  <path id="path4690" d="m150.3 852.81c28.173 0.70928 50.793 25.07 50.071 53.117-0.74656 29.006-25.835 52.292-54.716 51.534-29.84-0.78382-53.792-26.6-52.996-56.314 0.82107-30.674 27.365-55.291 57.913-54.459 31.508 0.8583 56.791 28.129 55.922 59.512-0.89553 32.342-28.894 58.291-61.11 57.385-33.176-0.93274-59.79-29.659-58.848-62.709 0.96994-34.01 30.424-61.29 64.308-60.31 34.843 1.0071 62.79 31.189 61.773 65.906-1.0443 35.677-31.954 64.289-67.505 63.236-36.511-1.0815-65.789-32.718-64.699-69.104 1.1187-37.345 33.483-67.288 70.702-66.162 38.179 1.1558 68.788 34.248 67.624 72.301-1.193 39.013-35.013 70.288-73.9 69.087-39.846-1.2301-71.787-35.778-70.55-75.498 1.2673-40.68 36.542-73.287 77.097-72.013 41.514 1.3044 74.787 37.307 73.476 78.696-1.3415 42.348-38.072 76.287-80.294 74.938-17.679-0.56443-34.913-7.2282-48.402-18.664" stroke="#000" stroke-width=".88978px" fill="none"/>
 </g>
</svg>
